<?xml version="1.0" encoding="UTF-8"?>
<svg version="1.1" xmlns="http://www.w3.org/2000/svg" width="2039" height="314">
<path d="M0 0 C0.73782211 -0.00335861 1.47564423 -0.00671722 2.23582458 -0.01017761 C4.6616284 -0.01962812 7.08736253 -0.02162886 9.51318359 -0.02270508 C11.2240705 -0.02592566 12.93495715 -0.02929031 14.64584351 -0.03279114 C18.23509354 -0.03877056 21.82431956 -0.04063265 25.41357422 -0.04003906 C29.05392479 -0.0399583 32.69414821 -0.04682035 36.33447266 -0.06054688 C101.98596075 -0.30424674 101.98596075 -0.30424674 121.53662109 17.95776367 C131.74620463 28.6417319 135.68151595 41.54987953 135.50146484 56.11401367 C134.48050755 70.51879297 128.79865562 81.38752781 118.28662109 91.14526367 C114.73969057 93.70820702 111.09618559 95.99481792 107.28662109 98.14526367 C110.09287979 100.0161028 112.79968957 101.34693058 115.84912109 102.77026367 C129.29865475 109.47063594 138.31195052 118.91321742 143.28662109 133.14526367 C147.44871941 149.31975467 145.04389496 165.8144838 137.09912109 180.39526367 C129.0548133 193.29330993 117.40823653 201.37618901 102.91162109 205.52026367 C89.64437124 208.52754394 76.54484035 209.461094 62.98193359 209.44604492 C61.4817595 209.44994878 59.98158647 209.45428679 58.48141479 209.45903015 C55.37054825 209.46640699 52.25979543 209.46626117 49.14892578 209.4609375 C45.1885671 209.45510878 41.22867095 209.47219676 37.26838875 209.49528217 C34.18321069 209.51008728 31.09814293 209.51088282 28.01293564 209.50777245 C26.55307972 209.50828076 25.09321681 209.51342494 23.63339615 209.52358437 C3.57126795 209.64628812 3.57126795 209.64628812 -3.27587891 203.14526367 C-6.47180726 199.21181339 -7.07960747 196.31809752 -6.98681641 191.27026367 C-6.51644427 187.61480021 -5.12336647 184.91358758 -2.71337891 182.14526367 C2.43174101 178.20584471 7.37896016 177.03065315 13.71923828 176.98754883 C15.35309479 176.97215561 15.35309479 176.97215561 17.0199585 176.95645142 C18.1959259 176.94915009 19.37189331 176.94184875 20.58349609 176.93432617 C23.09522102 176.90622669 25.60693967 176.87756208 28.11865234 176.84838867 C32.061194 176.80738663 36.00362251 176.77048622 39.94628906 176.74389648 C67.99435234 177.67597621 67.99435234 177.67597621 92.89599609 166.73510742 C97.8246465 161.29909595 100.25972242 154.34683605 100.30615234 147.09448242 C99.81674896 139.38407056 99.1856575 133.17583384 93.66552734 127.46948242 C85.04740403 120.24889262 73.48064166 118.14690973 62.53271484 117.86401367 C61.86282028 117.84592148 61.19292572 117.82782928 60.50273132 117.80918884 C58.24328626 117.74990804 55.98374222 117.69737264 53.72412109 117.64526367 C52.10742045 117.60503766 50.49072128 117.56475251 48.87402344 117.52441406 C22.68236917 116.89230087 -3.51732005 116.54244412 -29.71337891 116.14526367 C-29.78300356 103.65350679 -29.83625353 91.16179636 -29.86881542 78.66988468 C-29.88444642 72.86888316 -29.90563795 67.06801476 -29.93969727 61.26708984 C-29.97238201 55.66498449 -29.99025122 50.0630069 -29.99801064 44.46081352 C-30.00353777 42.32746814 -30.01433086 40.19412945 -30.03056908 38.0608387 C-30.05246432 35.06417049 -30.05534076 32.06802487 -30.05395508 29.07128906 C-30.06474091 28.19662491 -30.07552673 27.32196075 -30.0866394 26.42079163 C-30.051361 19.33306363 -28.79739684 12.55504638 -24.46337891 6.77026367 C-17.62265761 0.24048426 -9.01311214 -0.00600194 0 0 Z M13.28662109 33.14526367 C13.28662109 50.63526367 13.28662109 68.12526367 13.28662109 86.14526367 C20.40224609 86.18651367 27.51787109 86.22776367 34.84912109 86.27026367 C37.06187744 86.28847168 39.27463379 86.30667969 41.55444336 86.32543945 C64.79942023 87.10387395 64.79942023 87.10387395 85.12255859 77.50854492 C91.43652302 70.65558353 92.82679148 64.4689069 92.56396484 55.30151367 C92.02948993 49.21903861 90.6338888 45.08712506 86.16162109 40.83276367 C72.70402632 30.48723769 51.87104514 32.89632174 35.97412109 33.02026367 C28.48724609 33.06151367 21.00037109 33.10276367 13.28662109 33.14526367 Z " fill="#114483" transform="translate(77.71337890625,50.854736328125)"/>
<path d="M0 0 C1.02287109 0.77730469 1.02287109 0.77730469 2.06640625 1.5703125 C19.68208211 15.84211251 29.10039566 40.05066946 32 62 C32.11085938 62.80824219 32.22171875 63.61648437 32.3359375 64.44921875 C35.13265463 89.12835774 32.90850906 116.82553486 21 139 C20.51015625 139.9590625 20.0203125 140.918125 19.515625 141.90625 C15.08860532 150.08569589 9.5207929 156.46970157 3 163 C2.34257813 163.66902344 1.68515625 164.33804688 1.0078125 165.02734375 C-17.48795883 182.53085267 -44.44245435 187.24863904 -69 187 C-96.0284902 186.00392518 -120.26320432 177.47010413 -139.25 157.8125 C-156.02455813 138.42372502 -163.20008342 113.31909874 -164 88 C-164.03996094 87.1646875 -164.07992188 86.329375 -164.12109375 85.46875 C-164.93213886 54.55361888 -156.12557479 25.8975611 -134.75 3.25 C-100.14117926 -30.20358889 -36.6886285 -28.79360717 0 0 Z M-102 26 C-102.68835937 26.63421875 -103.37671875 27.2684375 -104.0859375 27.921875 C-116.38366104 40.45518711 -121.36688627 59.87954962 -122 77 C-122.0515625 77.78503906 -122.103125 78.57007813 -122.15625 79.37890625 C-122.88043374 98.66029833 -118.68880778 120.00413626 -106 135 C-105.35546875 135.77859375 -104.7109375 136.5571875 -104.046875 137.359375 C-95.87483678 146.37888385 -83.64652946 152.72792065 -71.3984375 153.3359375 C-56.85673855 153.59802793 -45.14603234 151.50006526 -33 143 C-32.38769531 142.59523437 -31.77539062 142.19046875 -31.14453125 141.7734375 C-18.00392327 131.97060409 -12.12844919 113.75448923 -9.82202148 98.30126953 C-7.0176031 76.93325983 -8.70355315 51.83965192 -22 34 C-31.54970344 21.6470568 -43.04056623 14.80720332 -58.515625 12.46875 C-74.79367007 10.89114211 -89.82576197 14.78328631 -102 26 Z " fill="#2E91CE" transform="translate(1561,73)"/>
<path d="M0 0 C1.52319834 1.49759836 3.02438006 3.01800014 4.5 4.5625 C5.22832031 5.28308594 5.95664062 6.00367187 6.70703125 6.74609375 C14.73777603 15.10462404 18.95571241 24.90635466 18.84375 36.48046875 C18.3268687 41.11477946 16.64155954 44.16732497 13.5 47.5625 C7.34736057 52.36155876 2.12557701 53.35565065 -5.5 52.5625 C-13.91485054 50.10755239 -18.01389711 43.81001855 -22.66577148 36.83374023 C-29.69391888 26.36109735 -37.7134965 17.87520615 -50.50634766 15.13232422 C-66.48384737 12.28780424 -82.90989609 13.37914348 -97.02734375 22.12890625 C-112.75641601 33.71733385 -119.72651992 50.12346091 -123.0859375 68.82421875 C-125.66313391 92.09192596 -123.4469345 117.23267776 -108.5546875 136.19921875 C-99.73803832 146.34004148 -87.90602527 152.84194061 -74.5 154.5625 C-54.2780463 155.92605136 -38.03384406 152.32515443 -19.55200195 144.36279297 C-17.5 143.5625 -17.5 143.5625 -13.5 142.5625 C-13.5 132.0025 -13.5 121.4425 -13.5 110.5625 C-15.98273438 110.58570313 -18.46546875 110.60890625 -21.0234375 110.6328125 C-23.45946747 110.64846252 -25.89549159 110.6605767 -28.33154297 110.67236328 C-30.00930334 110.68234803 -31.68704664 110.69594057 -33.36474609 110.71337891 C-56.80021421 110.95066477 -56.80021421 110.95066477 -63 106.25 C-66.45885694 102.53172879 -67.3477348 100.2069642 -67.8125 95.1875 C-67.35682211 89.90163648 -65.98226263 86.12946335 -62.3125 82.25 C-55.24016248 78.00659749 -47.54796512 78.26689273 -39.546875 78.296875 C-38.41026428 78.29496155 -37.27365356 78.2930481 -36.1026001 78.29107666 C-33.70560484 78.28972036 -31.30860209 78.29337789 -28.91162109 78.30175781 C-25.27554476 78.31242506 -21.63996695 78.3018638 -18.00390625 78.2890625 C-15.66406142 78.29038497 -13.32421691 78.29294916 -10.984375 78.296875 C-9.37595734 78.29080231 -9.37595734 78.29080231 -7.73504639 78.28460693 C12.66269746 78.40892772 12.66269746 78.40892772 19.5 84.5625 C23.20650074 89.47110908 24.61401085 92.97620192 24.69287109 99.06860352 C24.70893402 100.19730362 24.72499695 101.32600372 24.74154663 102.48890686 C24.78613732 107.6658437 24.82752221 112.84269385 24.85009766 118.01977539 C24.86338576 120.74440468 24.89114273 123.46827587 24.93212891 126.19262695 C24.99134499 130.1296964 25.00881131 134.06640702 25.0234375 138.00390625 C25.05744156 139.81538902 25.05744156 139.81538902 25.09213257 141.66346741 C25.07305704 149.36563238 23.88158821 155.129075 19.5 161.5625 C-1.44570135 181.96959761 -37.68010659 188.52499457 -65.68359375 188.60595703 C-83.17563613 188.33605555 -99.59899045 185.04015318 -115.5 177.5625 C-116.40105469 177.14484375 -117.30210937 176.7271875 -118.23046875 176.296875 C-138.37909931 166.17894797 -152.96486895 147.62199334 -160.32421875 126.5546875 C-170.22900815 96.19839599 -170.21429615 59.66232534 -155.61328125 30.67578125 C-151.70174348 23.36712632 -146.98610828 16.7651612 -141.5 10.5625 C-140.70722656 9.64597656 -140.70722656 9.64597656 -139.8984375 8.7109375 C-107.84614448 -25.86764463 -35.88178023 -31.43770653 0 0 Z " fill="#124482" transform="translate(811.5,71.4375)"/>
<path d="M0 0 C7.79425428 4.81796731 12.3617333 13.70490455 17.08203125 21.28125 C22.84311067 30.46186762 28.80363103 39.49608264 34.84136963 48.49642944 C37.87530301 53.01978644 40.90058443 57.54892213 43.92578125 62.078125 C44.55240662 63.01609421 45.17903198 63.95406342 45.824646 64.92045593 C54.22573545 77.50650182 62.53888629 90.15059559 70.85522461 102.79272461 C71.99981887 104.53240141 73.14443102 106.27206644 74.2890625 108.01171875 C74.83339432 108.83933212 75.37772614 109.6669455 75.93855286 110.51963806 C79.76119253 116.32686323 83.60775367 122.11768696 87.48721313 127.88713074 C89.62845504 131.08218682 91.65810022 134.32044677 93.625 137.625 C93.62858253 136.66835402 93.62858253 136.66835402 93.63223743 135.69238186 C93.69142658 120.15938938 93.76700157 104.62657555 93.86071491 89.09375668 C93.90564109 81.58213137 93.94506302 74.07055314 93.97143555 66.55883789 C93.99444145 60.01004892 94.02786827 53.46140931 94.07370156 46.91273886 C94.09759905 43.44667044 94.11635048 39.98074962 94.12261391 36.51460075 C94.12980917 32.6409983 94.16027444 28.76776508 94.19262695 24.89428711 C94.19119186 23.75061172 94.18975677 22.60693634 94.1882782 21.42860413 C94.27792476 13.83975248 94.95080956 8.71060436 100.0625 2.8125 C105.35372981 -1.7044035 109.57681251 -1.81774062 116.42578125 -1.6796875 C121.08361964 -1.23608384 123.01130522 -0.38641232 126.625 2.625 C131.71955136 9.01319398 132.74592513 14.50496257 132.76544189 22.60610962 C132.76841302 23.29682442 132.77138414 23.98753922 132.7744453 24.69918478 C132.78309767 27.00731396 132.78463761 29.31539106 132.78613281 31.62353516 C132.79076353 33.28128164 132.79578853 34.93902705 132.80117798 36.59677124 C132.81428164 41.09706982 132.82074325 45.5973535 132.82518864 50.09766817 C132.82812332 52.91244868 132.83222892 55.72722516 132.83669281 58.54200363 C132.85036387 67.35782592 132.86003181 76.17363893 132.8638947 84.98947108 C132.86837128 95.14882063 132.88590226 105.30803536 132.9148953 115.46734393 C132.9365533 123.33082401 132.94660122 131.19426628 132.94793582 139.05777586 C132.94898112 143.74906628 132.95482989 148.44022991 132.97275543 153.1314888 C132.98930692 157.5490719 132.99135748 161.96643385 132.98261642 166.38403702 C132.98184976 167.9984344 132.98613945 169.61284401 132.99607468 171.227211 C133.11848371 192.37071156 133.11848371 192.37071156 127.375 200.125 C122.05928577 204.95746748 116.73934306 206.17140551 109.6875 206.0625 C108.98165771 206.05275146 108.27581543 206.04300293 107.54858398 206.03295898 C101.93302576 205.84137928 98.01882997 205.13227004 93.625 201.625 C92.97144531 201.1196875 92.31789063 200.614375 91.64453125 200.09375 C83.64181914 192.98022813 78.24754695 183.4471146 72.49853516 174.52929688 C70.64956843 171.66308523 68.78637708 168.80669409 66.91796875 165.953125 C63.77553045 161.15165078 60.64408887 156.34313205 57.51611328 151.53222656 C54.39028231 146.72685667 51.25730437 141.92615171 48.125 137.125 C46.87496524 135.208356 45.62496525 133.29168933 44.375 131.375 C43.75625 130.42625 43.1375 129.4775 42.5 128.5 C40.625 125.625 38.75 122.75 36.875 119.875 C36.25560547 118.9252832 35.63621094 117.97556641 34.99804688 116.99707031 C33.75447777 115.09022113 32.51098753 113.18332051 31.26757812 111.27636719 C28.04484714 106.33405728 24.82053944 101.3927863 21.59375 96.453125 C20.59698242 94.92655273 20.59698242 94.92655273 19.58007812 93.36914062 C18.32408454 91.44562597 17.06761455 89.52242226 15.81054688 87.59960938 C12.81720829 83.0142829 9.84738577 78.41545419 6.91015625 73.79394531 C6.29148682 72.82080383 5.67281738 71.84766235 5.03540039 70.84503174 C4.56996826 70.11242126 4.10453613 69.37981079 3.625 68.625 C3.62135437 69.53431274 3.61770874 70.44362549 3.61395264 71.38049316 C3.5760016 79.97244593 3.51906823 88.56402186 3.44109726 97.15570831 C3.40167834 101.57224459 3.36946263 105.98858315 3.35400391 110.40527344 C3.33880029 114.67194898 3.30428974 118.93808078 3.25669098 123.20451355 C3.24191521 124.82784789 3.23396118 126.45125989 3.23311615 128.07466125 C3.21480398 145.62293818 3.21480398 145.62293818 -2.7510376 152.12463379 C-6.75991087 155.80295743 -10.5290077 157.55169414 -15.953125 157.69140625 C-21.3553099 157.44786513 -25.71244451 156.78859533 -29.94140625 153.26953125 C-36.99737874 145.17535028 -36.52504023 134.1340092 -36.52026367 124.02490234 C-36.52362228 122.99283661 -36.5269809 121.96077087 -36.53044128 120.89743042 C-36.53990164 117.50192036 -36.54189211 114.1064599 -36.54296875 110.7109375 C-36.54618541 108.33452332 -36.54954979 105.95810933 -36.55305481 103.58169556 C-36.55903428 98.60377545 -36.56089599 93.62587267 -36.56030273 88.64794922 C-36.56020134 82.30015191 -36.57383599 75.95246701 -36.59107494 69.60469627 C-36.6022496 64.69560242 -36.60422025 59.78653523 -36.60369301 54.87742996 C-36.60486557 52.53890217 -36.60924624 50.20037352 -36.61702538 47.86185837 C-36.72442968 12.23165971 -36.72442968 12.23165971 -29.375 4.625 C-21.16440887 -1.7574517 -9.92282558 -4.21868632 0 0 Z " fill="#114483" transform="translate(463.375,53.375)"/>
<path d="M0 0 C10.60857133 8.96843543 20.25553475 22.04292551 21.74194336 36.2043457 C21.8231543 36.87981445 21.90436523 37.5552832 21.98803711 38.2512207 C22.33709962 43.70928911 20.81862285 47.81444935 17.74194336 52.2043457 C14.67224005 55.36801952 11.63704759 58.05682262 7.13256836 58.4074707 C-3.99696228 58.5735831 -3.99696228 58.5735831 -8.25805664 55.2043457 C-12.48162262 50.09960409 -15.75086417 44.38159734 -19.13305664 38.7043457 C-26.82225067 26.23141646 -35.10921181 18.45375776 -49.36743164 14.2980957 C-63.44165134 11.46835841 -76.85592694 14.12038101 -88.93383789 21.60668945 C-102.27730617 30.77892227 -108.50922202 44.85531227 -112.00805664 60.2668457 C-116.10921668 83.09273072 -116.25895597 110.66878317 -103.76196289 131.1184082 C-95.42090808 142.68755955 -86.41576648 149.54622147 -72.25805664 152.2043457 C-57.49716882 153.67117033 -43.58351178 152.37880409 -31.46899414 143.10668945 C-22.74320027 135.59880674 -18.24647392 126.45700748 -14.13305664 115.8293457 C-11.73828816 109.68967178 -9.3256502 105.19963166 -3.25805664 102.2043457 C2.42089955 101.40641642 8.62549941 101.12824438 13.80444336 103.8918457 C17.66451337 106.93062422 20.17912813 109.51590001 21.74194336 114.2043457 C23.11818983 130.94491747 17.71584996 144.86359205 7.42944336 157.8918457 C-7.11918996 174.90552985 -26.62376337 184.60691048 -48.89868164 186.6809082 C-74.34696212 188.60486789 -102.03609326 185.13951434 -122.18774414 168.09106445 C-122.87094727 167.46844727 -123.55415039 166.84583008 -124.25805664 166.2043457 C-125.46848633 165.13120117 -125.46848633 165.13120117 -126.70336914 164.03637695 C-144.47523443 147.37865001 -155.40363494 121.59524915 -156.41918945 97.35888672 C-156.4390702 95.97541383 -156.4527951 94.59184226 -156.46118164 93.20825195 C-156.46973175 92.08144264 -156.46973175 92.08144264 -156.47845459 90.93186951 C-156.48785312 89.34603254 -156.49441795 87.76017649 -156.49829102 86.17431641 C-156.50790431 83.80439889 -156.53893743 81.4353851 -156.57055664 79.06567383 C-156.66409655 65.75460561 -155.15939737 52.93869916 -150.44555664 40.3918457 C-150.18548828 39.68447266 -149.92541992 38.97709961 -149.6574707 38.24829102 C-140.71156838 14.58319598 -123.42950527 -2.47644433 -100.78930664 -13.2956543 C-67.89270737 -27.26943098 -27.84314236 -22.49954803 0 0 Z " fill="#2E8FCD" transform="translate(1355.258056640625,72.795654296875)"/>
<path d="M0 0 C1.06766098 -0.0076664 1.06766098 -0.0076664 2.15689087 -0.01548767 C4.49498075 -0.02930799 6.83277269 -0.02843036 9.17089844 -0.02612305 C10.81931667 -0.03001866 12.46773392 -0.03435509 14.1161499 -0.03910828 C17.57258347 -0.04655772 21.02891494 -0.04629182 24.48535156 -0.04101562 C28.85871944 -0.03527154 33.23165677 -0.05203425 37.60495377 -0.0753603 C41.01477396 -0.09029841 44.42449581 -0.09094172 47.83434296 -0.08785057 C49.44306021 -0.08835541 51.05178426 -0.09343073 52.66046906 -0.10366249 C68.0756382 -0.18956488 84.34672319 0.71111355 98.53027344 7.2746582 C99.41585938 7.67168945 100.30144531 8.0687207 101.21386719 8.4777832 C109.23429487 12.43680282 115.2642937 18.01768131 121.53027344 24.2746582 C122.53574219 25.26272461 122.53574219 25.26272461 123.56152344 26.27075195 C145.36818845 49.31643202 147.27939001 83.82039476 146.66650391 113.6652832 C145.75409339 137.83925654 138.87362503 161.97383294 122.53027344 180.2746582 C121.83160156 181.12672852 121.13292969 181.97879883 120.41308594 182.85668945 C108.39661877 197.11822611 92.02994621 202.9353218 73.90765381 204.99707031 C61.96204248 205.97888364 49.8969721 205.7148169 37.92016602 205.66577148 C33.66261668 205.64852821 29.40562868 205.65865227 25.14809895 205.67648888 C21.83566589 205.68735596 18.52336511 205.68386963 15.21092796 205.6761055 C13.64057534 205.67411949 12.07021031 205.67650584 10.49987221 205.68354416 C-7.37505596 205.74622676 -7.37505596 205.74622676 -14.34472656 199.8371582 C-18.05135188 195.36740414 -18.8750932 192.17489426 -18.71582031 186.45043945 C-18.20255795 181.91254839 -15.91946572 179.72439736 -12.78222656 176.5871582 C-5.80476687 171.16252623 3.3459759 171.98094215 11.72558594 171.96606445 C14.32454642 171.9408952 16.9235047 171.91549732 19.52246094 171.88989258 C23.5836283 171.85927006 27.64481663 171.83700297 31.70605469 171.81835938 C35.65023789 171.79917741 39.59406936 171.75705647 43.53808594 171.71606445 C44.73128448 171.71594864 45.92448303 171.71583282 47.15383911 171.7157135 C60.96908501 171.55607457 75.23491166 169.33018933 86.06542969 160.1184082 C102.77328681 142.93637149 103.95641218 117.73476685 103.74511719 95.15356445 C103.36231685 77.82768811 99.9214458 60.37031683 87.68652344 47.3059082 C73.81787221 34.31780626 54.49834576 34.79780769 36.65527344 34.5871582 C34.69561633 34.55390794 32.73597995 34.51941147 30.77636719 34.48364258 C26.02765755 34.39733889 21.27961189 34.33653188 16.53027344 34.2746582 C16.53027344 43.5146582 16.53027344 52.7546582 16.53027344 62.2746582 C3.00027344 62.2746582 -10.52972656 62.2746582 -24.46972656 62.2746582 C-24.5387904 55.8696264 -24.59846751 49.46589919 -24.63452148 43.06079102 C-24.64955955 40.88431406 -24.66999529 38.70786716 -24.69604492 36.53149414 C-24.73264747 33.39372312 -24.74950317 30.2563546 -24.76269531 27.1184082 C-24.77817917 26.15350464 -24.79366302 25.18860107 -24.80961609 24.19445801 C-24.81125421 17.54093717 -24.12676465 11.68145456 -19.89160156 6.2512207 C-19.33988281 5.80520508 -18.78816406 5.35918945 -18.21972656 4.8996582 C-17.67832031 4.43817383 -17.13691406 3.97668945 -16.57910156 3.5012207 C-11.37279699 0.47385101 -5.90830822 0.02131239 0 0 Z " fill="#2F92CF" transform="translate(1642.4697265625,52.725341796875)"/>
<path d="M0 0 C14.19 0 28.38 0 43 0 C43 13.2 43 26.4 43 40 C45.77535156 39.97905273 48.55070312 39.95810547 51.41015625 39.93652344 C60.59423688 39.87015513 69.77832828 39.82602529 78.96258545 39.79275131 C84.52938555 39.77190347 90.09593931 39.74363672 95.66259766 39.69824219 C101.03777478 39.65468494 106.41271539 39.63084181 111.78805542 39.62049103 C113.83572104 39.61311742 115.88337416 39.59871848 117.93093872 39.57707977 C120.80580309 39.54791472 123.67969827 39.5440495 126.5546875 39.54589844 C127.39554398 39.53151733 128.23640045 39.51713623 129.10273743 39.50231934 C134.86188321 39.54222737 139.16760756 40.81141977 144 44 C148.09595046 48.36020533 148.29000682 52.75864588 148.21484375 58.49609375 C147.80091227 63.32027698 145.99116251 66.08317468 142.5 69.3125 C137.83606746 72.46065446 133.45290545 72.1359803 128.03051758 72.11352539 C126.65460701 72.11374443 126.65460701 72.11374443 125.25090027 72.1139679 C122.21541997 72.11327057 119.18000084 72.10548656 116.14453125 72.09765625 C114.04131606 72.09579143 111.93810043 72.09436783 109.83488464 72.09336853 C104.29630334 72.08954839 98.7577482 72.07972237 93.21917725 72.06866455 C86.57536612 72.05664225 79.93154624 72.05204579 73.28772736 72.04621124 C63.19180002 72.03651037 53.09593014 72.01735027 43 72 C43 91.14 43 110.28 43 130 C50.2703125 129.96519531 57.540625 129.93039063 65.03125 129.89453125 C69.64323722 129.87919864 74.25519292 129.86475645 78.8671875 129.85351562 C86.18398585 129.83559774 93.50067132 129.81442384 100.81738281 129.77368164 C106.71774023 129.74103267 112.61797656 129.72313518 118.51841736 129.71536827 C120.76702276 129.70983474 123.0156217 129.69902912 125.26417542 129.68280983 C128.41910001 129.66096233 131.57352729 129.65803619 134.72851562 129.65942383 C135.65352875 129.648638 136.57854187 129.63785217 137.53158569 129.6267395 C144.04834182 129.65765734 149.61616697 130.5793073 155.05859375 134.47265625 C159.22840068 139.28033733 160.41799417 143.65046951 160 150 C159.14760372 154.61580629 157.55056423 157.83850379 154 160.9375 C150.03330173 163.66460506 147.39264689 164.12656785 142.69529724 164.15390015 C141.04478615 164.16680084 141.04478615 164.16680084 139.3609314 164.17996216 C137.54922958 164.18635208 137.54922958 164.18635208 135.70092773 164.19287109 C134.42908127 164.20104858 133.1572348 164.20922607 131.84684753 164.21765137 C127.62578444 164.24385017 123.40471156 164.25918169 119.18359375 164.2734375 C117.72797197 164.27879897 116.27235025 164.28417649 114.81672859 164.28956985 C108.75774081 164.31119975 102.69875565 164.32993292 96.63973904 164.34119225 C87.97210462 164.35740724 79.30492021 164.39052349 70.6374554 164.44759309 C64.53537836 164.48639244 58.43342113 164.50583697 52.33122402 164.51111281 C48.69110008 164.51475406 45.05145632 164.52664212 41.4114666 164.55921555 C37.34232075 164.59510618 33.27413158 164.59090013 29.20483398 164.58349609 C28.01120239 164.59990143 26.8175708 164.61630676 25.58776855 164.63320923 C18.02936191 164.5770753 12.31082136 163.30404039 6 159 C-1.20633388 151.07303274 -0.28199481 139.80111929 -0.22705078 129.75952148 C-0.22648568 128.33949288 -0.22680516 126.91946369 -0.22793579 125.49943542 C-0.22850644 121.66945997 -0.21679905 117.83961139 -0.20278788 114.00966525 C-0.19023226 109.99782894 -0.18910622 105.98598928 -0.18673706 101.97413635 C-0.18053643 94.38830802 -0.16414491 86.80253777 -0.14403808 79.21673495 C-0.12163483 70.5758282 -0.11067455 61.9349186 -0.10064721 53.29399002 C-0.07977733 35.52928712 -0.04311892 17.76466378 0 0 Z " fill="#2A89C8" transform="translate(1831,96)"/>
<path d="M0 0 C14.96610687 9.15157211 20.20097072 30.71827729 26.27017212 46.09634399 C27.71715618 49.76264137 29.17110896 53.42612999 30.62768555 57.08862305 C31.12273526 58.3335994 31.61777614 59.57857926 32.11280823 60.82356262 C32.35789186 61.43990885 32.6029755 62.05625507 32.85548592 62.69127846 C33.59717628 64.55738614 34.33806514 66.42381013 35.07872009 68.29032898 C39.3813608 79.1290577 43.74096075 89.94399 48.125 100.75 C48.80502023 102.42859367 49.48495218 104.10722311 50.16479492 105.78588867 C53.35426025 113.65847889 56.5517741 121.52774072 59.75892639 129.3931427 C61.30355331 133.18291114 62.84522154 136.97387975 64.38656616 140.76498413 C65.11263675 142.54848891 65.84012866 144.33141592 66.56924438 146.11367798 C70.10961965 154.7679402 73.58278198 163.43980491 76.76171875 172.234375 C77.01269821 172.91444107 77.26367767 173.59450714 77.52226257 174.29518127 C80.06550698 181.48260137 81.00488993 188.28193776 77.75 195.3125 C69.09884066 204.62913314 69.09884066 204.62913314 62.38671875 205.17578125 C51.04193327 205.42439823 51.04193327 205.42439823 46.3125 200.9375 C42.72925813 196.93098313 40.66548269 192.81590588 38.5625 187.9375 C38.22541016 187.16728516 37.88832031 186.39707031 37.54101562 185.60351562 C34.80889173 179.27569448 32.27807061 172.87328286 29.8125 166.4375 C29.46219727 165.52355469 29.11189453 164.60960937 28.75097656 163.66796875 C26.3125 157.19483258 26.3125 157.19483258 26.3125 154.9375 C25.17296875 154.95844727 24.0334375 154.97939453 22.859375 155.00097656 C18.60283131 155.07376614 14.34634186 155.11944042 10.08935547 155.15722656 C8.25234707 155.17725373 6.41540171 155.20448382 4.57861328 155.23925781 C1.92724998 155.28817065 -0.72326541 155.31055763 -3.375 155.328125 C-4.18678711 155.34877014 -4.99857422 155.36941528 -5.83496094 155.39068604 C-11.57681948 155.39290949 -15.88826646 154.14974794 -20.6875 150.9375 C-25.01718384 146.38578109 -26.11129249 142.48872432 -26.03125 136.35546875 C-25.4435457 132.22150324 -23.58520716 128.91607341 -20.6875 125.9375 C-16.19841309 123.26677222 -12.95503412 122.57554158 -7.7578125 122.64453125 C-6.46875 122.65419922 -5.1796875 122.66386719 -3.8515625 122.67382812 C-2.50520214 122.69888812 -1.15884797 122.72428288 0.1875 122.75 C1.55727705 122.76506496 2.92707002 122.77875018 4.296875 122.79101562 C7.63582358 122.82628621 10.97395675 122.87558104 14.3125 122.9375 C14.09223145 122.3538266 13.87196289 121.7701532 13.64501953 121.16879272 C6.97785877 103.48560564 0.47401607 85.7455327 -5.98876953 67.98681641 C-7.24155521 64.54554864 -8.49572961 61.10478934 -9.75 57.6640625 C-10.13220703 56.61223785 -10.51441406 55.56041321 -10.90820312 54.47671509 C-11.25947266 53.51325165 -11.61074219 52.54978821 -11.97265625 51.55712891 C-12.28082275 50.71018463 -12.58898926 49.86324036 -12.90649414 48.9906311 C-13.6562734 46.91663154 -13.6562734 46.91663154 -14.6875 44.9375 C-14.916651 45.5277446 -15.145802 46.1179892 -15.38189697 46.72612 C-17.7724402 52.87848827 -20.17535322 59.02591993 -22.58544922 65.1706543 C-23.48282756 67.46336036 -24.37706335 69.75729906 -25.26806641 72.05249023 C-26.55063371 75.35470783 -27.84450286 78.65230178 -29.140625 81.94921875 C-29.53558167 82.97335373 -29.93053833 83.99748871 -30.33746338 85.05265808 C-32.71402662 91.05901836 -34.82874783 95.91545578 -40.25 99.75 C-46.17692958 101.79748476 -52.03122183 101.78951375 -58 99.875 C-62.36775158 96.72615584 -65.96773395 93.09679816 -67.6875 87.9375 C-68.00615296 82.26370707 -67.45710209 78.37202013 -65.3125 73.03125 C-65.04920898 72.36379761 -64.78591797 71.69634521 -64.51464844 71.00866699 C-63.91720712 69.49662518 -63.31398466 67.98685924 -62.70605469 66.47900391 C-61.58840953 63.69024884 -60.49946333 60.89130228 -59.4140625 58.08984375 C-57.30507988 52.65340218 -55.16822544 47.22847473 -53.01953125 41.80761719 C-52.12661211 39.54847939 -51.23864064 37.28738017 -50.35546875 35.02441406 C-49.06117174 31.70944833 -47.75105316 28.40112509 -46.4375 25.09375 C-46.04981445 24.09154419 -45.66212891 23.08933838 -45.26269531 22.0567627 C-41.74523313 13.28805113 -36.81226308 5.16531887 -28.6875 -0.0625 C-20.27512352 -3.6000745 -8.38295698 -3.87887203 0 0 Z " fill="#114484" transform="translate(318.6875,54.0625)"/>
<path d="M0 0 C5.42772822 4.48019313 7.93551362 9.05566974 9 16 C9.29933635 21.45660399 9.28411391 26.9081673 9.2746582 32.37084961 C9.27901004 34.03228483 9.28419477 35.69371805 9.29014587 37.35514832 C9.30349554 41.85102603 9.3041191 46.34681946 9.30158257 50.84271312 C9.30051024 54.60257468 9.30540288 58.36241938 9.310188 62.12227732 C9.32126898 70.99518674 9.32172835 79.86805381 9.31567383 88.7409668 C9.30963294 97.88073376 9.32195121 107.02034682 9.3432439 116.16008753 C9.360881 124.02105625 9.36685798 131.88197608 9.36360615 139.74296385 C9.3617967 144.43190008 9.36439579 149.12072647 9.37832069 153.8096447 C9.39092897 158.21988827 9.38892666 162.62989247 9.37590981 167.04013252 C9.37355109 168.65375475 9.37625331 170.26739399 9.38453293 171.8809967 C9.43473923 182.43051513 9.48013848 192.44347885 1.859375 200.5546875 C-2.92099202 204.270519 -8.74102493 205.33325517 -14.6875 204.9375 C-20.30172778 204.01502088 -24.31239363 201.73321735 -28.3125 197.625 C-32.71064556 190.78344025 -33.12244527 182.98843012 -33.13371277 175.03739929 C-33.13597833 174.37285494 -33.13824388 173.70831059 -33.14057809 173.02362853 C-33.14686432 170.81610859 -33.14609221 168.6086509 -33.14526367 166.40112305 C-33.14825853 164.81042401 -33.15166181 163.21972569 -33.15544128 161.62902832 C-33.16425232 157.32105364 -33.16661818 153.01309885 -33.16725707 148.70511603 C-33.16796922 146.00993441 -33.17010667 143.31475779 -33.17275429 140.61957741 C-33.18199815 131.20642401 -33.18609038 121.79328474 -33.18530273 112.38012695 C-33.18470221 103.62272412 -33.19525152 94.86538293 -33.2110464 86.10799569 C-33.2241463 78.57484896 -33.2294856 71.04172232 -33.22884732 63.50856429 C-33.22859306 59.01578051 -33.23140485 54.52305154 -33.24202538 50.03027916 C-33.25174766 45.80230462 -33.25175737 41.57443686 -33.24450874 37.34645844 C-33.24346802 35.80098374 -33.24579513 34.25550225 -33.2518692 32.71003914 C-33.33309169 10.59971003 -33.33309169 10.59971003 -27 3 C-19.31248832 -4.2829058 -9.21732503 -4.86063525 0 0 Z " fill="#124382" transform="translate(908,55)"/>
<path d="M0 0 C5.86346659 8.79519989 5.90080865 19.7975829 5 30 C3.36446058 37.98365007 0.04935868 44.64200557 -5 51 C-5.45503906 51.59167969 -5.91007812 52.18335938 -6.37890625 52.79296875 C-11.67207004 58.83242718 -19.04458492 62.2266449 -26.03027344 65.9453125 C-28.8331978 67.44613467 -31.60023482 69.0103886 -34.375 70.5625 C-38.74796748 73 -38.74796748 73 -41 73 C-40.90912109 73.62753174 -40.81824219 74.25506348 -40.72460938 74.90161133 C-34.5934203 118.05181954 -34.5934203 118.05181954 -45.1875 134.3125 C-52.58678372 144.01028462 -62.07989176 150.95066998 -74 154 C-76.875 154.125 -76.875 154.125 -79 154 C-80.37749202 151.24501595 -80.48712198 148.68017712 -80.84790039 145.61694336 C-80.92607498 144.96120834 -81.00424957 144.30547333 -81.08479309 143.62986755 C-81.34328411 141.45033127 -81.59587411 139.27016464 -81.84765625 137.08984375 C-82.02553571 135.56400441 -82.2034693 134.03817138 -82.38145447 132.51234436 C-82.75496511 129.30046403 -83.12509459 126.0882126 -83.4934082 122.87573242 C-83.9605278 118.8070996 -84.43991837 114.74002088 -84.92260075 110.67320919 C-85.29559896 107.51215956 -85.65965877 104.35012288 -86.02148247 101.18777657 C-86.19411291 99.69147579 -86.36983292 98.19552745 -86.54899788 96.69999504 C-87.50128813 88.72124594 -88.15816319 80.82379615 -88.20092773 72.78344727 C-88.20704354 72.08338782 -88.21315935 71.38332838 -88.21946049 70.66205502 C-88.14401943 58.73215542 -81.76705679 51.02543747 -73.8203125 42.72265625 C-59.90745499 29.39535671 -41.61088658 21.50591237 -24.62243652 12.86878967 C-18.90952762 9.96208861 -13.22914476 6.99591503 -7.5625 4 C-6.77641357 3.58492187 -5.99032715 3.16984375 -5.18041992 2.7421875 C-3.45299269 1.82929836 -1.72637859 0.91487069 0 0 Z " fill="#D30F33" transform="translate(1157,55)"/>
<path d="M0 0 C1.05459786 8.96233333 2.098419 17.92584186 3.12921143 26.89094448 C3.60838364 31.05559681 4.09099668 35.21978493 4.58203125 39.38305664 C5.05745438 43.4151326 5.52311077 47.44823635 5.98254395 51.48216438 C6.15777609 53.00639684 6.33628536 54.53025694 6.51843262 56.05367851 C7.48019845 64.1168814 8.16226579 72.10130454 8.2109375 80.22680664 C8.21796692 80.92472793 8.22499634 81.62264921 8.23223877 82.34171963 C8.15954755 94.43706525 1.42417627 102.50669607 -6.5 110.9375 C-19.35155809 123.3744917 -36.45772097 130.78696 -52.15179443 139.02838135 C-53.9977875 139.99883687 -55.84214949 140.9723244 -57.68603516 141.94677734 C-61.16230579 143.78348573 -64.64299121 145.6116895 -68.125 147.4375 C-69.19145752 147.99920898 -70.25791504 148.56091797 -71.35668945 149.13964844 C-72.33468506 149.64915039 -73.31268066 150.15865234 -74.3203125 150.68359375 C-75.17898926 151.13275146 -76.03766602 151.58190918 -76.92236328 152.04467773 C-79 153 -79 153 -81 153 C-85.84127781 140.57261276 -87.66891635 127.01913815 -82.2734375 114.4296875 C-80.15137365 110.38084174 -77.71615779 106.6712902 -75 103 C-74.4225 102.13375 -73.845 101.2675 -73.25 100.375 C-64.33475883 90.96446766 -51.37712863 85.77963159 -40 80 C-40.14243597 77.33311371 -40.28886578 74.66654233 -40.4375 72 C-40.47681641 71.25621094 -40.51613281 70.51242188 -40.55664062 69.74609375 C-40.76133691 66.12454402 -41.03107123 62.54479294 -41.515625 58.94921875 C-43.41792421 43.43934373 -41.9772807 29.65268796 -32.90234375 16.43359375 C-26.18137606 7.83572338 -11.52481742 -3.4028017 0 0 Z " fill="#D30F33" transform="translate(1059,110)"/>
<path d="M0 0 C1.81389977 -0.00788544 1.81389977 -0.00788544 3.66444397 -0.01593018 C6.95572254 -0.02681302 10.24663457 -0.02434549 13.53790712 -0.01479292 C16.99527993 -0.00715045 20.45262981 -0.01425426 23.91000366 -0.01895142 C29.71169372 -0.02439424 35.51326883 -0.01725471 41.31494141 -0.00292969 C48.00940221 0.01340949 54.70358905 0.00809334 61.39804327 -0.0084089 C67.16306602 -0.02204755 72.92800658 -0.02393231 78.69304025 -0.0160929 C82.12881673 -0.01143138 85.56446463 -0.01074966 89.0002327 -0.02070236 C92.82977029 -0.02832838 96.65878273 -0.01669609 100.48828125 0 C101.61781723 -0.00607269 102.74735321 -0.01214539 103.91111755 -0.0184021 C111.5212867 0.04300472 116.58483845 0.75348129 122.48974609 5.88818359 C126.12064931 10.15983444 125.95298078 14.20625615 125.89599609 19.59130859 C125.46591519 23.86822427 124.2407773 25.9814404 121.61474609 29.38818359 C116.81054626 32.99133347 112.59355549 33.5136036 106.70489502 33.50843811 C105.49617233 33.50981277 104.28744965 33.51118744 103.042099 33.51260376 C101.70596289 33.50906489 100.36982702 33.50543008 99.03369141 33.50170898 C97.62425234 33.50142686 96.21481313 33.50158534 94.80537415 33.50215149 C90.98133993 33.50243847 87.15733706 33.49655772 83.33331013 33.48957753 C79.33612031 33.48332753 75.33892979 33.48273889 71.34173584 33.48155212 C63.77346991 33.47844367 56.20521841 33.47023682 48.63695884 33.46020263 C40.02034519 33.44902643 31.40373085 33.44352724 22.78711176 33.4385072 C5.06298168 33.42805382 -12.66113495 33.41046376 -30.38525391 33.38818359 C-30.41586307 31.33359042 -30.43755489 29.27886332 -30.45556641 27.22412109 C-30.46861816 26.07991699 -30.48166992 24.93571289 -30.49511719 23.75683594 C-30.26175386 16.60139762 -28.35683889 10.08174464 -23.23091698 4.90668678 C-16.73402087 -0.43857781 -7.96365207 -0.04296877 0 0 Z " fill="#2F92CF" transform="translate(1861.38525390625,52.61181640625)"/>
<path d="M0 0 C1.8069593 2.71043894 2.35394634 3.89366424 2.96142578 6.93310547 C3.12144073 7.7175705 3.28145569 8.50203552 3.44631958 9.31027222 C3.61098724 10.15405426 3.77565491 10.9978363 3.9453125 11.8671875 C4.12005096 12.73892609 4.29478943 13.61066467 4.474823 14.50881958 C4.84274003 16.35240363 5.20733286 18.19665374 5.56884766 20.04150391 C6.12184028 22.85890177 6.68703921 25.67364601 7.25390625 28.48828125 C7.61010734 30.28110465 7.96559953 32.07406908 8.3203125 33.8671875 C8.48902863 34.70692108 8.65774475 35.54665466 8.83157349 36.41183472 C9.59311116 40.32959008 10.2184262 43.9860376 10 48 C9.08935791 48.46784912 8.17871582 48.93569824 7.24047852 49.41772461 C3.7810168 51.19543332 0.32215049 52.97429749 -3.13644409 54.75369263 C-4.66559232 55.54038231 -6.19482762 56.32690278 -7.72415161 57.11325073 C-17.00722528 61.88756252 -26.2881335 66.66260935 -35.45288086 71.66186523 C-39.78855363 74 -39.78855363 74 -42 74 C-46.84127781 61.57261276 -48.66891635 48.01913815 -43.2734375 35.4296875 C-41.15137365 31.38084174 -38.71615779 27.6712902 -36 24 C-35.13375 22.700625 -35.13375 22.700625 -34.25 21.375 C-25.7818904 12.43643986 -13.69584375 7.49351165 -2.88256836 2.01220703 C-1.0443018 1.14027954 -1.0443018 1.14027954 0 0 Z " fill="#B20F2E" transform="translate(1020,189)"/>
<path d="M0 0 C5.86346659 8.79519989 5.90080865 19.7975829 5 30 C3.36446058 37.98365007 0.04935868 44.64200557 -5 51 C-5.45503906 51.59167969 -5.91007812 52.18335938 -6.37890625 52.79296875 C-15.2105404 62.86979414 -30.20551934 68.14492372 -42 74 C-42.86085435 68.14764044 -43.71514118 62.29437294 -44.56347656 56.44018555 C-44.85270806 54.45066755 -45.14370178 52.46140487 -45.43652344 50.47241211 C-45.85820711 47.60596717 -46.27344997 44.73865005 -46.6875 41.87109375 C-46.81874268 40.98852402 -46.94998535 40.10595428 -47.08520508 39.19664001 C-47.76984016 34.40720782 -48.1376551 29.8380032 -48 25 C-46.83150513 24.39696045 -46.83150513 24.39696045 -45.6394043 23.78173828 C-30.39554897 15.91227618 -15.16272183 8.02510184 0 0 Z " fill="#AC0F2D" transform="translate(1157,55)"/>
</svg>
